<svg width="120" height="36" viewBox="0 0 120 36" fill="none" xmlns="http://www.w3.org/2000/svg">
<path d="M24.1795 14.1366C22.9419 14.1366 21.8948 14.5015 21.0856 15.2313C20.2606 15.9612 19.7529 16.9449 19.5466 18.1666H28.7489C28.5744 16.9449 28.0825 15.9612 27.2734 15.2313C26.4801 14.5015 25.4488 14.1366 24.1795 14.1366ZM32.0808 23.8307C31.7952 25.2111 30.2403 26.8294 29.0504 27.6227C27.6542 28.543 26.0358 29.0031 24.1954 29.0031C21.6092 29.0031 19.5307 28.1463 17.9441 26.4328C16.3575 24.7192 15.5642 22.5456 15.5642 19.9277C15.5642 17.3733 16.3575 15.2313 17.96 13.4861C19.5625 11.7408 21.625 10.884 24.1636 10.884C26.7022 10.884 28.7489 11.7408 30.3197 13.4385C31.8904 15.1361 32.6678 17.2781 32.6678 19.8642L32.6361 21.1018H19.4673C19.6259 22.4821 20.1178 23.5769 20.9745 24.3861C21.8154 25.1952 22.9261 25.6078 24.3064 25.6078C26.1786 25.6078 27.5114 24.9255 28.5427 22.9422L32.0808 23.8307Z" fill="#282828"/>
<path d="M102.24 13.7878C102.24 14.2004 102.24 14.3749 102.24 14.3749C102.24 14.3749 96.8774 14.1686 96.8774 19.3251V28.337H92.9109V11.0271H96.576V13.4229C97.5438 11.7094 99.3525 10.7416 102.24 10.8526V13.7878V13.7878Z" fill="#282828"/>
<path d="M41.1228 28.7336H42.7728C44.8354 28.7336 46.4062 28.1148 47.5168 26.8773C48.6274 25.6397 49.1827 23.9738 49.1827 21.8953V10.9478H45.2004V21.3718C45.2004 23.9421 44.1215 25.2589 41.9637 25.3224H41.8843C39.7266 25.2589 38.6477 23.9421 38.6477 21.3718V10.9478H34.6653V21.8953C34.6653 23.9738 35.2206 25.6239 36.3312 26.8773C37.4418 28.1148 39.0126 28.7336 41.0752 28.7336H42.7252" fill="#282828"/>
<path d="M82.0903 28.7336H83.7404C85.803 28.7336 87.3737 28.1148 88.4843 26.8773C89.595 25.6397 90.1503 23.9738 90.1503 21.8953V10.9478H86.1679V21.3718C86.1679 23.9421 85.089 25.2589 82.9312 25.3224H82.8677C80.71 25.2589 79.6311 23.9421 79.6311 21.3718V10.9478H75.6487V21.8953C75.6487 23.9738 76.204 25.6239 77.3146 26.8773C78.4252 28.1148 79.996 28.7336 82.0586 28.7336H83.7086" fill="#282828"/>
<path fill-rule="evenodd" clip-rule="evenodd" d="M70.8106 26.639C69.9221 25.687 68.51 25.211 66.5743 25.211H60.9102C60.101 25.211 59.7043 24.8303 59.7043 24.0845C59.7043 23.6879 59.8313 23.3547 60.101 23.1167C60.3707 22.8787 60.5928 22.7359 60.7674 22.6883C61.7669 23.0691 62.7348 23.2595 63.6709 23.2595C65.7652 23.2595 67.447 22.6566 68.7163 21.4508C70.8741 19.4199 70.6043 16.8813 70.6043 16.8813H66.9551C66.9551 16.9131 67.0503 18.2617 66.0666 19.1026C65.4479 19.6103 64.6704 19.9118 63.655 19.9118C62.6396 19.9118 61.8304 19.642 61.2434 19.1026C60.6246 18.5156 60.3707 16.9131 60.3549 16.8813H56.7215C56.7215 16.9131 56.6581 18.2458 57.261 19.5627C57.5307 20.1498 58.0543 20.8637 58.4033 21.2287C57.023 22.022 56.3407 23.2278 56.3407 24.8302C56.3407 26.1947 56.8167 27.2102 57.7687 27.8924C56.5311 28.7333 55.8965 29.8598 55.8965 31.256C55.8965 32.8109 56.5311 33.985 57.7846 34.7941C59.038 35.5874 61.0688 36 63.8771 36C66.5902 36 68.6528 35.4446 70.049 34.3499C71.4452 33.2551 72.1433 31.9382 72.1433 30.3992C72.1433 28.8285 71.6991 27.5909 70.8106 26.639ZM63.7978 32.6681C62.1477 32.6681 61.0054 32.4935 60.3549 32.1604C59.7043 31.8272 59.387 31.2719 59.387 30.4944C59.387 29.7329 59.7043 29.1458 60.3549 28.7333H66.4633C67.1138 28.7333 67.6057 28.8761 67.9706 29.1617C68.3196 29.4473 68.51 29.8598 68.51 30.3992C68.51 31.9065 66.9393 32.6681 63.7978 32.6681Z" fill="#282828"/>
<path d="M71.9965 6.63396C72.4893 7.50088 73.1952 9.01018 73.3017 10.0644C71.7119 8.81927 70.3123 7.43244 67.3907 6.98337C68.5724 5.73462 69.0022 4.78366 69.4102 3.86871C70.2106 4.12326 71.5836 5.90873 71.9965 6.63396ZM54.1931 8.59953C54.8252 5.8631 58.5919 3.15308 60.1998 1.99679C61.6249 0.97138 63.3854 0 64.9364 0C65.405 0 65.853 0.0888547 66.2683 0.290575C64.5308 2.48549 58.799 7.74583 54.5491 11.468C54.1217 10.4042 53.9994 9.43883 54.1931 8.59953ZM56.4319 14.9141C55.5734 14.345 55.2756 13.6257 55.0019 12.6291C59.6756 8.83848 64.5647 4.16289 67.0855 1.07104C67.4379 1.17911 68.2213 2.31498 68.329 2.95136C67.3858 5.22912 65.6677 7.10825 63.7498 8.84208C63.7414 8.84928 63.7341 8.85649 63.7256 8.86369C62.9132 9.59613 60.5267 11.7358 59.6344 12.3686L56.4319 14.9141ZM60.5546 13.2355C60.8403 12.9954 62.4785 11.982 62.7703 11.7394C63.4907 11.1379 64.3274 10.4979 64.4933 10.1076C65.5321 10.5111 67.2829 12.6628 68.053 13.6497C65.4825 12.742 62.2485 13.0266 60.5546 13.2355ZM70.3631 14.8865C70.3631 14.8865 70.0604 14.3294 69.4671 13.5969L68.7818 12.652C68.6075 12.4382 68.4331 12.2149 68.2564 11.9868C67.4936 11.0058 66.6545 9.93113 65.5091 9.25753C65.9305 8.84568 66.3409 8.41943 66.7332 7.97876C68.0978 7.74823 71.6623 9.98516 72.7459 11.5821C72.7024 11.8883 72.798 12.3698 72.4493 13.418C72.0691 14.5623 70.3631 14.8865 70.3631 14.8865Z" fill="white"/>
<path d="M111.585 28.7336H113.235C115.298 28.7336 116.868 28.1148 117.979 26.8773C119.09 25.6397 119.645 23.9738 119.645 21.8953V10.9478H115.663V21.3718C115.663 23.9421 114.584 25.2589 112.426 25.3224H112.362C110.205 25.2589 109.126 23.9421 109.126 21.3718V10.9478H105.143V21.8953C105.143 23.9738 105.699 25.6239 106.809 26.8773C107.92 28.1148 109.491 28.7336 111.553 28.7336H113.203" fill="#282828"/>
<path d="M1.67645 27.1607C0.182307 25.6749 1.68656 23.5382 3.76754 23.2068V23.2068C3.83516 23.9844 4.18845 24.6062 4.82741 25.0722C5.46638 25.5381 6.36893 25.7718 7.53507 25.7718C8.56597 25.7718 9.36226 25.5942 9.92394 25.2389C10.4842 24.8822 10.7644 24.4039 10.7644 23.804C10.7644 23.1372 10.4221 22.6425 9.73901 22.32C9.0545 21.9975 8.23614 21.7351 7.28252 21.5329C6.32891 21.3306 5.36425 21.127 4.38856 20.9193C3.41286 20.7129 2.58345 20.2319 1.89894 19.4762C1.21444 18.7219 0.872184 17.6888 0.872184 16.3783C0.872184 14.8683 1.50563 13.5851 2.77252 12.5302C4.0394 11.4752 5.71617 10.9478 7.8028 10.9478C9.8439 10.9478 11.4144 11.4479 12.5129 12.4468C12.8151 12.7215 13.0856 13.0098 13.3244 13.3118C14.2352 14.4597 13.5756 16.1556 12.1251 16.4139L10.8293 16.6448C10.7395 15.9561 10.4304 15.3739 9.90462 14.8956C9.37744 14.4187 8.64325 14.1796 7.70068 14.1796C6.77467 14.1796 6.05428 14.3436 5.54228 14.6702C5.08272 14.964 4.78049 15.4573 4.71701 15.9943C4.63835 16.6667 4.98059 17.1682 5.74514 17.5002C6.43793 17.8009 7.25906 18.0578 8.20716 18.2696C9.15525 18.4814 10.1199 18.6973 11.1011 18.9173C12.0823 19.1373 12.909 19.647 13.5838 20.4478C14.2587 21.2486 14.5968 22.3118 14.5968 23.6387C14.5968 25.1938 13.9634 26.4824 12.6965 27.5032C11.4296 28.5254 9.62861 29.0351 7.29633 29.0351C5.05374 29.0351 3.33695 28.5513 2.14873 27.5852C1.98206 27.4496 1.82463 27.3081 1.67645 27.1607Z" fill="#282828"/>
</svg>
