<svg width="16" height="16" viewBox="0 0 16 16" fill="none" xmlns="http://www.w3.org/2000/svg">
<path d="M15 9C15.5523 9 16 8.55229 16 8C16 7.44772 15.5523 7 15 7L15 9ZM0.292894 7.29288C-0.0976305 7.6834 -0.0976314 8.31657 0.292893 8.70709L6.65685 15.0711C7.04737 15.4616 7.68054 15.4616 8.07106 15.0711C8.46158 14.6805 8.46159 14.0474 8.07106 13.6568L2.41421 7.99999L8.07107 2.34314C8.4616 1.95261 8.4616 1.31945 8.07108 0.928924C7.68055 0.5384 7.04739 0.538399 6.65686 0.928923L0.292894 7.29288ZM15 7L1 6.99998L0.999999 8.99998L15 9L15 7Z" fill="#2D2D2D"/>
</svg>
