<svg width="27" height="21" viewBox="0 0 27 21" fill="none" xmlns="http://www.w3.org/2000/svg">
<path d="M24.5737 8.99072C25.2415 10.1656 26.1982 12.2111 26.3426 13.6399C24.1881 11.9524 22.2912 10.0729 18.3316 9.46426C19.9332 7.77189 20.5157 6.48308 21.0687 5.24309C22.1533 5.58808 24.0141 8.00784 24.5737 8.99072ZM0.445605 11.6546C1.30216 7.946 6.40708 4.27324 8.58622 2.70617C10.5176 1.31647 12.9035 0 15.0055 0C15.6405 0 16.2477 0.120421 16.8105 0.393804C14.4558 3.36847 6.68765 10.4976 0.928026 15.5421C0.348781 14.1004 0.183058 12.792 0.445605 11.6546ZM3.47966 20.2124C2.31625 19.4411 1.91258 18.4664 1.54173 17.1157C7.87567 11.9784 14.5017 5.64178 17.9181 1.45154C18.3956 1.59799 19.4573 3.1374 19.6033 3.99985C18.3251 7.0868 15.9966 9.63349 13.3974 11.9833C13.3859 11.993 13.376 12.0028 13.3646 12.0126C12.2635 13.0052 9.02924 15.905 7.81989 16.7626L3.47966 20.2124ZM9.067 17.9375C9.45426 17.612 11.6744 16.2386 12.0699 15.9099C13.0462 15.0946 14.1801 14.2273 14.4049 13.6984C15.8128 14.2452 18.1856 17.1613 19.2292 18.4989C15.7455 17.2687 11.3626 17.6544 9.067 17.9375ZM22.3601 20.175C22.3601 20.175 21.9498 19.42 21.1458 18.4273L20.217 17.1466C19.9807 16.857 19.7444 16.5543 19.5049 16.2451C18.4711 14.9156 17.3339 13.4592 15.7816 12.5463C16.3527 11.9882 16.909 11.4105 17.4406 10.8133C19.2899 10.5008 24.1208 13.5325 25.5894 15.6967C25.5303 16.1117 25.66 16.7642 25.1874 18.1848C24.6721 19.7356 22.3601 20.175 22.3601 20.175Z" fill="#C5E205"/>
</svg>
